<?xml version="1.0" encoding="UTF-8" standalone="no"?>
<svg
   xmlns:dc="http://purl.org/dc/elements/1.1/"
   xmlns:cc="http://creativecommons.org/ns#"
   xmlns:rdf="http://www.w3.org/1999/02/22-rdf-syntax-ns#"
   xmlns:svg="http://www.w3.org/2000/svg"
   xmlns="http://www.w3.org/2000/svg"
   xmlns:sodipodi="http://sodipodi.sourceforge.net/DTD/sodipodi-0.dtd"
   xmlns:inkscape="http://www.inkscape.org/namespaces/inkscape"
   width="400"
   height="300"
   id="svg2"
   version="1.1"
   inkscape:version="0.48.4 r9939"
   sodipodi:docname="dream.svg">
  <metadata
     id="metadata18">
    <rdf:RDF>
      <cc:Work
         rdf:about="">
        <dc:format>image/svg+xml</dc:format>
        <dc:type
           rdf:resource="http://purl.org/dc/dcmitype/StillImage" />
      </cc:Work>
    </rdf:RDF>
  </metadata>
  <defs
     id="defs16" />
  <sodipodi:namedview
     pagecolor="#ffffff"
     bordercolor="#666666"
     borderopacity="1"
     objecttolerance="10"
     gridtolerance="10"
     guidetolerance="10"
     inkscape:pageopacity="0"
     inkscape:pageshadow="2"
     inkscape:window-width="2479"
     inkscape:window-height="1416"
     id="namedview14"
     showgrid="false"
     inkscape:zoom="4.1433333"
     inkscape:cx="199.75865"
     inkscape:cy="150"
     inkscape:window-x="81"
     inkscape:window-y="24"
     inkscape:window-maximized="1"
     inkscape:current-layer="svg2" />
  <path
     d="m 17.099924,33.260807 c -1.365365,0 -2.67548,0.157845 -3.946135,0.45249 l -0.986535,0 c -2.8228009,0 -5.310181,1.53636 -6.5361161,3.86458 C 2.1716926,40.661128 2.5e-6,45.137358 2.5e-6,50.114748 l 0,199.773112 c 0,4.98134 2.1664301,9.41416 5.6311354,12.49609 l 0.04075,0.0408 c 1.2390901,2.28613 3.7027902,3.82249 6.4953411,3.82249 l 0.86289,0 c 1.304855,0.31175 2.664955,0.49327 4.06978,0.49327 l 365.758091,0 c 1.40614,0 2.76493,-0.18152 4.06978,-0.49327 l 0.90499,0 c 2.82279,0 5.31018,-1.57714 6.53611,-3.90536 C 397.81648,259.25995 400,254.85475 400,249.88656 l 0,-199.773127 c 0,-4.96292 -2.18879,-9.41416 -5.63113,-12.496096 -1.22199,-2.344 -3.70148,-3.905355 -6.53611,-3.905355 l -1.02731,0 c -1.27066,-0.294645 -2.58078,-0.45249 -3.94614,-0.45249 l -365.758071,0 z m 6.166496,5.795555 353.42642,0 c 7.62394,0 13.92723,5.137871 15.70299,12.085696 l 0,8.797256 -80.07367,0 -172.02651,-0.90498 c -1.46796,-0.124965 -5.03527,-0.887885 -6.1244,-5.015541 -1.08914,-4.127655 1.31406,-8.093525 -5.17996,-11.838405 0,0 -42.027664,-0.11707 -71.976201,-0.123645 -4.277615,-0.0015 -8.294783,-0.0065 -11.921278,0 -9.670666,0.0171 -16.505371,0.03025 -17.428766,0.123645 -3.69753,0.36962 -5.970506,7.6897 -5.878426,10.563805 0.09208,2.8741 -3.62387,7.146451 -4.85112,7.153026 l -9.331291,-0.04075 0,-8.838026 C 9.4194281,44.128488 15.683259,39.056392 23.265105,39.056392 z m -4.809026,22.937572 c 3.03063,0 5.765306,1.28118 7.687071,3.32922 l 253.081705,0 0,14.223191 -252.91728,0 c -1.92966,2.15722 -4.730101,3.493645 -7.851496,3.493645 -5.82055,0 -10.523026,-4.70248 -10.523026,-10.52303 0,-5.820551 4.702476,-10.523026 10.523026,-10.523026 z m 0,2.09671 c -4.655125,0 -8.426315,3.769875 -8.426315,8.426316 0,4.655125 3.769875,8.426315 8.426315,8.426315 4.655126,0 8.426316,-3.769875 8.426316,-8.426315 0,-4.655126 -3.769875,-8.426316 -8.426316,-8.426316 z m 274.456606,1.027315 67.77357,0 c 3.9948,0 7.1938,3.239775 7.1938,7.234581 0,3.994805 -3.199,7.193805 -7.1938,7.193805 l -67.77357,0 c -3.9948,0 -7.19381,-3.199 -7.19381,-7.193805 0,-3.994806 3.19901,-7.234581 7.19381,-7.234581 z m 82.99882,2.630755 10.52303,0 0,2.30191 -10.52303,0 z m 0,3.576516 10.52303,0 0,2.261135 -10.52303,0 z m 0,3.576515 10.52303,0 0,2.261135 -10.52303,0 z M 7.606838,85.095926 l 384.788992,0 0,163.723844 c -1.77576,6.93862 -8.07774,12.04361 -15.70299,12.04361 l -353.42642,0 c -7.581846,0 -13.8456769,-5.04053 -15.660897,-11.92128 l 0,-163.847489 z"
     id="path8"
     inkscape:connector-curvature="0"
     style="fill:#e6e6e6;stroke:none;stroke-opacity:1"
     sodipodi:nodetypes="ccscssccscsscscsscscscccsccccsccccscccccsccccsssssssssssssssccccccccccccccccccssccc" />
  <path
     inkscape:connector-curvature="0"
     id="path5"
     d="m 104.78604,160.17836 c -2.183,-0.572 -3.286,-0.841 -5.369,-1.308 -0.689,-0.155 -1.387,-0.233 -2.076,-0.233 -2.675,0 -4.76,1.127 -6.505,2.184 -0.395,0.239 -0.801,0.52 -1.229,0.815 -1.496,1.034 -3.191995,2.19399 -5.573999,2.25 l 0,-5.93101 -4.045,0 0,-33.80682 -1.999,0 0,33.80682 -4.043,0 0,5.93101 c -2.382,-0.056 -4.078,-1.216 -5.574,-2.25 -0.428,-0.295 -0.834,-0.576 -1.229,-0.815 -1.745,-1.057 -3.83,-2.184 -6.505,-2.184 -0.688,0 -1.387,0.078 -2.076,0.233 -2.083,0.467 -3.187,0.736 -5.369,1.308 -3.385,0.889 -4.687,3.232 -6.528,6.982 -3.458,7.038 -9.634,26.118 -9.634,39.083 0,10.90799 5.013,12.086 7.168,12.086 l 10e-4,0 c 1.718,0 3.54,-0.671 5.129,-1.89 3.858,-2.959 10.178,-8.372 12.55,-10.48 l 0.268,-0.239 c 2.099,-1.883 4.477,-4.016 16.842,-4.016 12.364999,0 14.742999,2.133 16.841999,4.016 l 0.268,0.239 c 2.373,2.108 8.692,7.521 12.55,10.48 1.59,1.219 3.412,1.89 5.13,1.89 2.156,0 7.169,-1.178 7.169,-12.086 0,-12.965 -6.176,-32.045 -9.634,-39.083 -1.841,-3.75 -3.142,-6.093 -6.528,-6.982 z m -28.839999,-0.22301 6.088,0 0,3.94101 -6.088,0 z m 37.832999,56.374 c -1.262,0 -2.688,-0.538 -3.913,-1.478 -3.818,-2.927 -10.084,-8.295 -12.438,-10.387 l -0.262,-0.234 c -2.366,-2.122 -5.047,-4.526 -18.176999,-4.526 -13.13,0 -15.812,2.404 -18.177,4.526 l -0.262,0.234 c -2.354,2.092 -8.62,7.46 -12.438,10.387 -1.225,0.939 -2.651,1.478 -3.913,1.478 0,0 0,0 -10e-4,0 -3.333,0 -5.168,-3.58199 -5.168,-10.086 0,-12.655 6.045,-31.312 9.429,-38.201 1.958,-3.986 2.937,-5.325 5.241,-5.929 2.155,-0.565 3.245,-0.831 5.299,-1.292 0.545,-0.122 1.097,-0.184 1.638,-0.184 2.16,0 3.886,0.936 5.469,1.895 0.362,0.219 0.735,0.47801 1.128,0.75 1.686,1.165 3.784,2.61501 6.885,2.61501 l 9.74,0 c 3.101004,0 5.198999,-1.45 6.884999,-2.61501 0.393,-0.27099 0.766,-0.53 1.128,-0.75 1.583,-0.959 3.309,-1.895 5.469,-1.895 0.542,0 1.093,0.062 1.638,0.184 2.055,0.461 3.145,0.727 5.299,1.292 2.305,0.604 3.283,1.943 5.241,5.929 3.384,6.889 9.429,25.546 9.429,38.201 0,6.504 -1.835,10.086 -5.169,10.086 z m -53.556795,-47.803 c -3.943,0 -7.151,3.208 -7.151,7.15001 0,3.942 3.208,7.15 7.151,7.15 3.943,0 7.151,-3.208 7.151,-7.15 0,-3.94201 -3.208,-7.15001 -7.151,-7.15001 z m 0,12.301 c -2.84,0 -5.151,-2.311 -5.151,-5.15 0,-2.839 2.311,-5.15 5.151,-5.15 2.84,0 5.151,2.311 5.151,5.15 0,2.839 -2.311,5.15 -5.151,5.15 z m 37.480525,-12.301 c -3.943,0 -7.151,3.208 -7.151,7.15001 0,3.942 3.208,7.15 7.151,7.15 3.943,0 7.151,-3.208 7.151,-7.15 0,-3.94201 -3.207,-7.15001 -7.151,-7.15001 z m 0,12.301 c -2.84,0 -5.151,-2.311 -5.151,-5.15 0,-2.839 2.311,-5.15 5.151,-5.15 2.841,0 5.151,2.311 5.151,5.15 0,2.839 -2.31,5.15 -5.151,5.15 z"
     sodipodi:nodetypes="ccsccccccccccccscccssscccscccsscccccccscccsccccsssccsccssccsccsssssssssssssssssssssss"
     style="fill:#e6e6e6;stroke:#e6e6e6;stroke-width:3;stroke-miterlimit:4;stroke-opacity:1;stroke-dasharray:none" />
  <path
     inkscape:connector-curvature="0"
     style="fill:#e6e6e6;fill-opacity:1;stroke:#e6e6e6;stroke-width:1;stroke-miterlimit:4;stroke-opacity:1;stroke-dasharray:none"
     d="m 164.15134,121.4927 0.0646,99.52168 44.93264,-0.0292 -0.0646,-99.52168 -44.93264,0.0291 z m 6.92127,1.94195 30.71976,-0.0199 0.0191,29.44953 -30.71976,0.0199 -0.0191,-29.44951 z m -5.33931,1.21683 3.29886,-0.002 0.004,5.32746 -3.29886,0.002 z m 38.01895,-0.0246 3.29885,-0.002 0.004,5.32746 -3.29885,0.002 z m -38.01108,12.15839 3.29886,-0.002 0.004,5.32746 -3.29884,0.002 -0.004,-5.32744 z m 38.01896,-0.0247 3.29885,-0.002 0.004,5.32746 -3.29885,0.002 z m -38.01108,12.15839 3.29886,-0.002 0.004,5.32745 -3.29885,0.002 -0.004,-5.32746 z m 38.01895,-0.0246 3.29885,-0.002 0.004,5.32746 -3.29886,0.002 -0.004,-5.32746 z m -32.67439,6.89698 30.71977,-0.0199 0.0191,29.44952 -30.71976,0.0199 -0.0191,-29.44951 z m -5.33668,5.26141 3.29885,-0.002 0.004,5.32746 -3.29885,0.002 z m 38.01896,-0.0247 3.29885,-0.002 0.004,5.32745 -3.29886,0.002 -0.004,-5.32745 z m -38.01108,12.15839 3.29886,-0.002 0.004,5.32745 -3.29886,0.002 z m 38.01896,-0.0247 3.29885,-0.002 0.004,5.32746 -3.29885,0.002 z m -38.01108,12.15839 3.29885,-0.002 0.004,5.32746 -3.29885,0.002 z m 38.01895,-0.0247 3.29886,-0.002 0.004,5.32745 -3.29885,0.002 -0.004,-5.32746 z m -32.67702,2.85241 30.71977,-0.0199 0.0191,29.44952 -30.71977,0.0199 z m -5.33405,9.30598 3.29885,-0.002 0.004,5.32746 -3.29886,0.002 -0.004,-5.32746 z m 38.01895,-0.0247 3.29885,-0.002 0.004,5.32745 -3.29885,0.002 z m -38.01108,12.15839 3.29885,-0.002 0.004,5.32745 -3.29885,0.002 z m 38.01895,-0.0246 3.29885,-0.002 0.004,5.32746 -3.29884,0.002 -0.004,-5.32745 z"
     id="rect3391-6"
     sodipodi:nodetypes="cccccccccccccccccccccccccccccccccccccccccccccccccccccccccccccccccccccccccccccccccccccccccccccccccccccccccccscc" />
  <g
     transform="matrix(0.15608263,0,0,0.15608263,230.37585,148.97989)"
     id="layer1"
     style="fill:#e6e6e6;stroke:#e6e6e6;stroke-width:12.81372546999999962;stroke-miterlimit:4;stroke-opacity:1;stroke-dasharray:none">
    <path
       inkscape:connector-curvature="0"
       d="m 137.59401,14.318277 0,242.218913 770.37382,-1.01431 -0.9636,-242.320352 -769.41022,1.115749 z m 763.12145,2.637224 0.20286,56.700325 -751.15251,1.065033 0,-56.700325 750.94965,-1.065033 z m 0.25358,60.453298 0.20286,53.099501 -751.40609,1.06503 0,-53.099498 751.20323,-1.065033 z m 0.20286,56.852471 0.20287,55.0267 -751.60896,1.06504 0,-55.02671 751.40609,-1.06503 z m 0.20287,58.72896 0.25358,58.72896 -751.86254,1.06503 0,-58.72896 751.60896,-1.06503 z"
       style="fill:#e6e6e6;fill-opacity:1;fill-rule:evenodd;stroke:#e6e6e6;stroke-width:12.81372546999999962;stroke-miterlimit:4;stroke-opacity:1;stroke-dasharray:none"
       id="path4165" />
    <path
       inkscape:connector-curvature="0"
       d="m 230.48461,342.69507 c 0,0 20.63702,-11.96425 18.99502,-30.84733 -1.64201,-18.88306 -13.13604,-26.27208 -28.7351,-24.63008 -15.59907,1.64201 -26.2721,16.42005 -23.80909,32.84011 2.46302,16.42006 23.80909,41.05014 48.43917,41.05014 24.63009,0 43.51315,-11.49403 50.90218,-32.84011 7.38903,-21.34607 9.03103,-26.27208 6.56802,-64.03822 C 300.3818,226.46346 291.47019,158.43964 281.61816,123.1365 271.76612,87.833382 259.64862,36.232362 262.84704,19.369203 c 3.00022,-15.818186 21.28466,-58.148786 32.13853,-64.187511 0,0 13.60626,29.90692 4.57524,48.7899826 -9.03104,18.8830624 -36.12413,56.6492034 -55.82821,75.5322654 -19.70406,18.883062 -51.4918,45.29697 -52.31281,92.87035 -0.56269,32.84555 28.50374,68.0462 40.81878,77.89824 12.31504,9.85204 49.26017,21.34608 81.27927,8.21003 32.01912,-13.13604 46.79717,-32.84012 49.26017,-63.21723 2.46303,-30.37709 -22.16706,-67.32223 -51.72317,-72.24824 -29.5561,-4.92601 -60.6566,9.99647 -73.06926,36.94513 -14.81395,32.16199 9.36667,65.33586 13.95705,63.21722 l 0.82101,-6.56802 c -2.72145,-1.36073 -18.77019,-32.4735 14.41979,-50.31255 27.48267,-14.77146 62.07074,2.02275 63.80685,37.73627 0.77443,15.93075 -10.54377,48.69103 -48.67054,49.52141 -45.1368,0.97541 -67.32224,-35.30312 -66.50123,-60.75422 0.821,-25.45108 7.38902,-49.26017 44.33415,-87.0263 36.94513,-37.766137 55.00719,-63.217218 51.72319,-113.2984018 -3.28402,-50.0811672 -24.98836,-68.2626512 -24.98836,-68.2626512 0,-2.113069 -40.34109,29.008467 -41.16209,71.7929615 -0.77197,40.2301195 21.81629,109.7680915 34.95233,195.9733915 13.13606,86.2053 14.77806,131.36046 -2.46301,146.13851 -17.24105,14.77804 -34.51198,16.62157 -47.73011,4.57523 z"
       style="fill:#e6e6e6;fill-opacity:1;fill-rule:nonzero;stroke:#e6e6e6;stroke-width:12.81372546999999962;stroke-miterlimit:4;stroke-opacity:1;stroke-dasharray:none"
       id="path2221" />
    <path
       inkscape:connector-curvature="0"
       d="m 586.16887,150.16093 6.40774,4.8058 c 0,0 19.75721,-30.43678 24.56303,-59.271628 4.8058,-28.834844 1.5638,-65.483158 -5.87377,-73.155063 -9.42862,-9.725678 -34.52262,-29.3794914 -42.71828,-38.446464 -8.3795,-9.270338 -8.89407,-25.639355 -8.54367,-26.16495 l -5.87376,2.669894 1.60193,169.805201 c 0,0 -15.95648,-2.73523 -23.94287,-1.92432 -12.96553,1.31649 -33.19283,12.60389 -39.60058,25.95336 -6.40775,13.34945 -6.40775,33.10666 12.2815,36.31054 18.68926,3.20388 33.10668,-1.60194 41.65034,-8.00968 8.54365,-6.40774 21.35914,-17.6213 21.35914,-29.9028 0,-12.28151 -4.27182,-18.15527 -4.27182,-32.03872 0,-13.88344 0.53397,-92.912274 0.53397,-92.912274 0,0 6.40774,8.00968 14.95141,9.611604 8.54364,1.601939 19.7572,-1.067955 27.76688,12.815498 8.00969,13.883437 7.4757,34.174631 -0.53398,58.203652 -8.00968,24.02905 -20.29118,41.65035 -19.75721,41.65035 z"
       style="fill:#e6e6e6;fill-opacity:1;fill-rule:evenodd;stroke:#e6e6e6;stroke-width:12.81372546999999962;stroke-miterlimit:4;stroke-opacity:1;stroke-dasharray:none"
       id="path3194" />
  </g>
</svg>
