<svg xmlns="http://www.w3.org/2000/svg" width="40" height="30"><path d="M 0,0 V 30 H 40 V 0 z" fill="#00247d"/><path d="m 0,0 0,3.3593745 L 15.520834,15 0,26.640624 0,30 4.483334,30 20,18.375 35.516666,30 l 4.483332,0 0,-3.359376 L 24.479166,15 40,3.3593742 l 0,-3.3593745 -4.483332,0 L 20,11.625 4.483334,0 0,0 z" fill="#fff"/><path d="M 0,0 0,2.2187494 17,15 0,27.78125 0,30 2.96875,30 20,17.249999 37.03125,30 40,30 40,27.78125 22.96875,15 40,2.2187494 40,0 37.03125,0 20,12.75 3,0 0,0 z" fill="#cf142b"/><path d="M 17,0 17,10 0,10 l 0,10 16.6666655,0 0,10 6.666666,0 0,-10 16.666664,0 0,-10 -16.666664,0 0,-10.0000004 -6.666667,0 z" fill="#fff"/><path d="M 18,0 18,12 0,12 l 0,6 18,0 0,12 L 22,30 l 0,-12 18,0 0,-6 L 22,12 22,0 l -4,0 z" fill="#cf142b"/></svg>